<svg width="200" height="214" viewBox="0 0 200 214" fill="none" xmlns="http://www.w3.org/2000/svg">
<path d="M100.315 52.001C150.851 52.1819 192.628 90.4564 191.993 141.15C191.682 166.01 180.455 181.716 163.897 191.615C146.84 201.813 123.739 206 100.345 206C74.1681 206 50.7864 200.295 34.2139 189.294C17.9797 178.517 8.00003 162.544 8 140.449C8 91.1094 49.9188 51.8208 100.315 52.001Z" stroke="#FFA658" stroke-width="16"/>
<path d="M45.1867 23.0358C45.1867 10.3135 55.5002 0 68.2226 0C80.9449 0 91.2584 10.3135 91.2584 23.0358V41.66C91.2584 51.8858 82.9687 60.1755 72.7428 60.1755H45.1867V23.0358Z" fill="#FFA658"/>
<path d="M108.742 23.0358C108.742 10.3135 119.055 0 131.777 0C144.5 0 154.813 10.3135 154.813 23.0358V60.1755H127.257C117.031 60.1755 108.742 51.8858 108.742 41.66V23.0358Z" fill="#FFA658"/>
</svg>
