<svg width="8" height="9" viewBox="0 0 8 9" fill="none" xmlns="http://www.w3.org/2000/svg">
<g clip-path="url(#clip0_13_567)">
<path d="M3.99803 8.65686C4.21013 8.65686 4.31799 8.51236 4.53371 8.21553L6.83427 5.10219C6.93834 4.95769 7 4.81303 7 4.65686C7 4.49669 6.93834 4.35603 6.83427 4.21153L4.53371 1.09436C4.31799 0.80136 4.20996 0.65686 3.99803 0.65686C3.79004 0.65686 3.68201 0.80136 3.46629 1.09436L1.16574 4.21153C1.06166 4.35603 1 4.49669 1 4.65686C1 4.81319 1.06166 4.95769 1.16574 5.10219L3.46629 8.21553C3.68201 8.51219 3.79004 8.65686 3.99803 8.65686Z" fill="#474035"/>
</g>
<defs>
<clipPath id="clip0_13_567">
<rect width="8" height="8" fill="white" transform="translate(0 0.65686)"/>
</clipPath>
</defs>
</svg>
