<svg width="70" height="77" viewBox="0 0 70 77" fill="none" xmlns="http://www.w3.org/2000/svg">
<path d="M45.916 4C51.6613 4.00008 56.3191 8.6571 56.3193 14.4023V29.6699C61.7599 34.9626 65.1284 42.3197 65.0234 50.7402C64.8111 67.7579 49.3647 73 34.6631 73C18.1033 72.9999 4.09082 65.7811 4.09082 50.4951C4.09089 42.5023 7.34797 35.3368 12.583 30.0684V14.4023C12.5832 8.65709 17.241 4.00007 22.9863 4C28.7317 4 33.3895 8.65705 33.3896 14.4023V21.0068C33.8123 20.9913 34.2368 20.9828 34.6631 20.9844C34.9469 20.9854 35.2305 20.9897 35.5127 20.998V14.4023C35.5129 8.65705 40.1707 4 45.916 4Z" fill="#FFFDEA"/>
<path d="M45.916 4L45.9161 0H45.916V4ZM56.3193 14.4023H60.3193V14.4022L56.3193 14.4023ZM56.3193 29.6699H52.3193C52.3193 30.7499 52.756 31.784 53.5301 32.537L56.3193 29.6699ZM65.0234 50.7402L69.0231 50.7901V50.7901L65.0234 50.7402ZM34.6631 73L34.6631 77H34.6631V73ZM4.09082 50.4951L0.0908203 50.4951V50.4951H4.09082ZM12.583 30.0684L15.4204 32.8878C16.1651 32.1384 16.583 31.1248 16.583 30.0684H12.583ZM12.583 14.4023L8.58301 14.4022V14.4023H12.583ZM22.9863 4V0H22.9863L22.9863 4ZM33.3896 14.4023H37.3896V14.4022L33.3896 14.4023ZM33.3896 21.0068H29.3896C29.3896 22.0932 29.8315 23.1329 30.6138 23.8868C31.396 24.6408 32.4512 25.0441 33.5368 25.0041L33.3896 21.0068ZM34.6631 20.9844L34.6775 16.9844H34.6774L34.6631 20.9844ZM35.5127 20.998L35.3943 24.9963C36.4752 25.0283 37.5231 24.6213 38.299 23.868C39.0748 23.1148 39.5127 22.0794 39.5127 20.998H35.5127ZM35.5127 14.4023L31.5127 14.4022V14.4023H35.5127ZM45.916 4L45.916 8C49.4525 8.00005 52.3192 10.8667 52.3193 14.4025L56.3193 14.4023L60.3193 14.4022C60.3191 6.44752 53.87 0.00010705 45.9161 0L45.916 4ZM56.3193 14.4023H52.3193V29.6699H56.3193H60.3193V14.4023H56.3193ZM56.3193 29.6699L53.5301 32.537C58.2188 37.0983 61.1145 43.4145 61.0237 50.6904L65.0234 50.7402L69.0231 50.7901C69.1424 41.225 65.301 32.8269 59.1085 26.8028L56.3193 29.6699ZM65.0234 50.7402L61.0238 50.6903C60.9359 57.7325 57.8247 62.0564 53.2178 64.8224C48.3614 67.7381 41.6453 69 34.6631 69V73V77C42.3825 77 50.7404 75.6409 57.3357 71.6811C64.1805 67.5716 68.8987 60.7656 69.0231 50.7901L65.0234 50.7402ZM34.6631 73L34.6631 69C26.8861 68.9999 20.0981 67.2931 15.3859 64.1516C10.8422 61.1224 8.09082 56.7036 8.09082 50.4951H4.09082H0.0908203C0.0908203 59.5726 4.34565 66.4062 10.9482 70.8079C17.3822 75.0973 25.8803 76.9999 34.6631 77L34.6631 73ZM4.09082 50.4951L8.09082 50.4952C8.09088 43.624 10.8828 37.4544 15.4204 32.8878L12.583 30.0684L9.74559 27.249C3.81313 33.2193 0.0908959 41.3807 0.0908203 50.4951L4.09082 50.4951ZM12.583 30.0684H16.583V14.4023H12.583H8.58301V30.0684H12.583ZM12.583 14.4023L16.583 14.4025C16.5831 10.8667 19.4498 8.00004 22.9864 8L22.9863 4L22.9863 0C15.0323 9.91821e-05 8.58327 6.44752 8.58301 14.4022L12.583 14.4023ZM22.9863 4V8C26.5229 8 29.3895 10.8666 29.3896 14.4025L33.3896 14.4023L37.3896 14.4022C37.3894 6.44752 30.9405 0 22.9863 0V4ZM33.3896 14.4023H29.3896V21.0068H33.3896H37.3896V14.4023H33.3896ZM33.3896 21.0068L33.5368 25.0041C33.9144 24.9902 34.2844 24.983 34.6488 24.9844L34.6631 20.9844L34.6774 16.9844C34.1892 16.9827 33.7102 16.9923 33.2425 17.0095L33.3896 21.0068ZM34.6631 20.9844L34.6487 24.9843C34.9019 24.9853 35.1506 24.9891 35.3943 24.9963L35.5127 20.998L35.6311 16.9998C35.3103 16.9903 34.9919 16.9855 34.6775 16.9844L34.6631 20.9844ZM35.5127 20.998H39.5127V14.4023H35.5127H31.5127V20.998H35.5127ZM35.5127 14.4023L39.5127 14.4025C39.5128 10.8666 42.3795 8 45.916 8V4V0C37.9619 0 31.513 6.44752 31.5127 14.4022L35.5127 14.4023Z" fill="#FFA658"/>
</svg>
